<mxfile host="Electron" agent="Mozilla/5.0 (Macintosh; Intel Mac OS X 10_15_7) AppleWebKit/537.36 (KHTML, like Gecko) draw.io/25.0.2 Chrome/128.0.6613.186 Electron/32.2.5 Safari/537.36" version="25.0.2">
  <diagram name="Page-1" id="UM9HZbfT2wf9a5GvkIQ4">
    <mxGraphModel dx="1136" dy="777" grid="1" gridSize="10" guides="1" tooltips="1" connect="1" arrows="1" fold="1" page="1" pageScale="1" pageWidth="827" pageHeight="1169" math="0" shadow="0">
      <root>
        <mxCell id="0" />
        <mxCell id="1" parent="0" />
        <mxCell id="01J1ZDzAzd5sZsaq71US-20" value="Request" style="edgeStyle=orthogonalEdgeStyle;rounded=0;orthogonalLoop=1;jettySize=auto;html=1;exitX=1;exitY=0.75;exitDx=0;exitDy=0;entryX=0;entryY=0.75;entryDx=0;entryDy=0;" edge="1" parent="1" source="01J1ZDzAzd5sZsaq71US-2" target="01J1ZDzAzd5sZsaq71US-4">
          <mxGeometry relative="1" as="geometry" />
        </mxCell>
        <mxCell id="01J1ZDzAzd5sZsaq71US-2" value="PTP Follower" style="rounded=1;whiteSpace=wrap;html=1;" vertex="1" parent="1">
          <mxGeometry width="120" height="60" as="geometry" />
        </mxCell>
        <mxCell id="01J1ZDzAzd5sZsaq71US-3" value="" style="group" vertex="1" connectable="0" parent="1">
          <mxGeometry x="240" width="120" height="60" as="geometry" />
        </mxCell>
        <mxCell id="01J1ZDzAzd5sZsaq71US-4" value="PTP GM" style="rounded=1;whiteSpace=wrap;html=1;" vertex="1" parent="01J1ZDzAzd5sZsaq71US-3">
          <mxGeometry width="120" height="60" as="geometry" />
        </mxCell>
        <mxCell id="01J1ZDzAzd5sZsaq71US-5" value="" style="sketch=0;pointerEvents=1;shadow=0;dashed=0;html=1;labelPosition=center;verticalLabelPosition=bottom;verticalAlign=top;outlineConnect=0;align=center;shape=mxgraph.office.concepts.clock;aspect=fixed;" vertex="1" parent="01J1ZDzAzd5sZsaq71US-3">
          <mxGeometry x="10" y="20" width="20" height="20" as="geometry" />
        </mxCell>
        <mxCell id="01J1ZDzAzd5sZsaq71US-8" value="Switch" style="rounded=1;whiteSpace=wrap;html=1;" vertex="1" parent="1">
          <mxGeometry x="480" width="120" height="60" as="geometry" />
        </mxCell>
        <mxCell id="01J1ZDzAzd5sZsaq71US-11" value="Switch" style="rounded=1;whiteSpace=wrap;html=1;" vertex="1" parent="1">
          <mxGeometry x="720" width="120" height="60" as="geometry" />
        </mxCell>
        <mxCell id="01J1ZDzAzd5sZsaq71US-13" value="PTP Follower" style="rounded=1;whiteSpace=wrap;html=1;" vertex="1" parent="1">
          <mxGeometry x="960" width="120" height="60" as="geometry" />
        </mxCell>
        <mxCell id="01J1ZDzAzd5sZsaq71US-17" value="Response" style="edgeStyle=orthogonalEdgeStyle;rounded=0;orthogonalLoop=1;jettySize=auto;html=1;exitX=1;exitY=0.25;exitDx=0;exitDy=0;entryX=0;entryY=0.25;entryDx=0;entryDy=0;" edge="1" parent="1" source="01J1ZDzAzd5sZsaq71US-4" target="01J1ZDzAzd5sZsaq71US-13">
          <mxGeometry relative="1" as="geometry" />
        </mxCell>
        <mxCell id="01J1ZDzAzd5sZsaq71US-18" value="Request" style="edgeStyle=orthogonalEdgeStyle;rounded=0;orthogonalLoop=1;jettySize=auto;html=1;exitX=0;exitY=0.75;exitDx=0;exitDy=0;entryX=1;entryY=0.75;entryDx=0;entryDy=0;" edge="1" parent="1" source="01J1ZDzAzd5sZsaq71US-13" target="01J1ZDzAzd5sZsaq71US-4">
          <mxGeometry relative="1" as="geometry" />
        </mxCell>
        <mxCell id="01J1ZDzAzd5sZsaq71US-19" value="Response" style="edgeStyle=orthogonalEdgeStyle;rounded=0;orthogonalLoop=1;jettySize=auto;html=1;exitX=0;exitY=0.25;exitDx=0;exitDy=0;entryX=1;entryY=0.25;entryDx=0;entryDy=0;" edge="1" parent="1" source="01J1ZDzAzd5sZsaq71US-4" target="01J1ZDzAzd5sZsaq71US-2">
          <mxGeometry relative="1" as="geometry" />
        </mxCell>
      </root>
    </mxGraphModel>
  </diagram>
</mxfile>
